<?xml version="1.0" encoding="UTF-8"?>
<svg width="12px" height="16px" viewBox="0 0 12 16" version="1.1" xmlns="http://www.w3.org/2000/svg" xmlns:xlink="http://www.w3.org/1999/xlink">
    <title>bookmark</title>
    <g id="Symbols" stroke="none" stroke-width="1" fill="none" fill-rule="evenodd">
        <g id="icon/menu/saved_items" transform="translate(-6.000000, -4.000000)" fill="#212237" fill-rule="nonzero">
            <g id="bookmark" transform="translate(6.800000, 4.000000)">
                <path d="M10.1000088,0 L0.459989945,0 C0.211469975,0 0.00998999881,0.201479976 0.00998999881,0.449999946 L0.00998999881,14.9099982 C0.00998999881,15.0920082 0.119639986,15.2560782 0.287789966,15.3257382 C0.343469959,15.3488082 0.401939952,15.3599982 0.459899945,15.3599982 C0.577019931,15.3599982 0.692099917,15.3143082 0.778199907,15.2281782 L5.28008937,10.7263487 L9.78179883,15.2281782 C9.91049882,15.3568782 10.1040588,15.3953682 10.2722088,15.3257382 C10.4403588,15.2560782 10.5500087,15.0920082 10.5500087,14.9099982 L10.5500087,0.449999946 C10.5500087,0.201479976 10.3485288,0 10.1000088,0 Z M5.28005937,9.63995885 C5.16071938,9.63995885 5.0462694,9.68735885 4.96187941,9.77177884 L0.909989892,13.8236084 L0.909989892,0.899999893 L9.64997885,0.899999893 L9.64997885,13.8236084 L5.59826933,9.77177884 C5.51387934,9.68735885 5.39942936,9.63995885 5.28005937,9.63995885 Z" id="Shape"></path>
            </g>
        </g>
    </g>
</svg>