<?xml version="1.0" encoding="UTF-8"?>
<svg width="17px" height="7px" viewBox="0 0 17 7" version="1.1" xmlns="http://www.w3.org/2000/svg" xmlns:xlink="http://www.w3.org/1999/xlink">
    <title>iconfinder_auto_commercial_car_computer_combi_compact_compact_car_4047289 2</title>
    <g id="Homepage" stroke="none" stroke-width="1" fill="none" fill-rule="evenodd">
        <g id="0,4-Multi-Village-Home-Member" transform="translate(-40.000000, -1493.000000)" fill="#90909B" fill-rule="nonzero">
            <g id="iconfinder_auto_commercial_car_computer_combi_compact_compact_car_4047289-2" transform="translate(40.500000, 1493.000000)">
                <g id="iconfinder_auto_commercial_car_computer_combi_compact_compact_car_4047289" transform="translate(0.500000, 0.000000)">
                    <path d="M2.85243534,5.80872539 C3.01685345,5.80872539 3.15109914,5.68025691 3.15907328,5.51874449 C3.15935345,5.51368718 3.15948276,5.50858702 3.15948276,5.50348685 C3.15948276,5.33490277 3.02200431,5.19820545 2.8524569,5.19820545 C2.68290948,5.19820545 2.54543103,5.33490277 2.54543103,5.50348685 C2.54543103,5.50858702 2.5455819,5.51368718 2.54584052,5.51874449 C2.5537931,5.68025691 2.68803879,5.80872539 2.85243534,5.80872539 Z" id="Path"></path>
                    <path d="M12.4429741,5.19820545 C12.2734267,5.19820545 12.1359483,5.33490277 12.1359483,5.50348685 C12.1359483,5.50858702 12.1360991,5.51368718 12.1363578,5.51874449 C12.1443319,5.68025691 12.2785776,5.80872539 12.4429957,5.80872539 C12.6074138,5.80872539 12.7416595,5.68025691 12.7496336,5.51874449 C12.7499138,5.51368718 12.7500216,5.50858702 12.7500216,5.50348685 C12.75,5.33490277 12.6125216,5.19820545 12.4429741,5.19820545 Z" id="Path"></path>
                    <path d="M0.444482759,5.57664638 L1.38346983,5.57664638 C1.42161638,6.35045736 2.06471983,6.96590603 2.85243534,6.96590603 C3.64015086,6.96590603 4.28327586,6.35045736 4.32140086,5.57664638 L10.9739871,5.57664638 C11.0121552,6.35045736 11.6552371,6.96590603 12.4429526,6.96590603 C13.2306681,6.96590603 13.8737931,6.35045736 13.9119181,5.57664638 L14.6815302,5.57664638 C14.7679526,5.57664638 14.8464009,5.53807369 14.9030819,5.47592881 C14.9597629,5.41378392 14.9949678,5.32806683 14.9949678,5.23313516 C14.9949678,5.15148964 14.9684052,5.07241563 14.9199138,5.01027074 L14.7602155,4.80519262 C15.1168966,4.00202354 14.9918966,2.85105738 14.8729095,2.18846432 C14.8045905,1.806809 14.5949138,1.47315525 14.2925216,1.26979146 C13.9302155,1.02592636 13.3132112,0.69270119 12.2961853,0.337403874 C10.2720474,-0.369547781 6.69381466,0.244829423 5.98926724,0.819562476 C5.42784483,1.27729171 4.31706897,2.36247 2.90909483,2.52318953 C2.17743534,2.6065494 1.55090517,2.81934206 1.11771552,3.00470526 C0.732155172,3.16949635 0.474202586,3.57129519 0.460172414,4.02452427 L0.44487069,4.51589746 L0.200689655,4.69440329 C0.139482759,4.73919046 0.0905818966,4.79897813 0.0569396552,4.86798038 C0.0233189655,4.93676834 0.005,5.01477089 0.005,5.09513066 C0.005,5.36106791 0.201788793,5.57664638 0.444482759,5.57664638 Z M13.372069,5.57664638 C13.334569,6.05344766 12.9321983,6.43017425 12.4429741,6.43017425 C11.95375,6.43017425 11.5513793,6.05344766 11.5139009,5.57664638 C11.5119397,5.5526456 11.5108621,5.52821623 11.5108621,5.50357257 C11.5108621,4.99248445 11.9289655,4.57675659 12.4429741,4.57675659 C12.9570043,4.57675659 13.3750862,4.99248445 13.3750862,5.50357257 C13.3750862,5.52821623 13.3740086,5.5526456 13.372069,5.57664638 Z M14.5627371,3.23099836 C14.6346336,3.24578456 14.6871121,3.30705084 14.6910991,3.37993179 C14.7087931,3.7041781 14.6604095,4.03815329 14.6281034,4.21665912 C14.6142888,4.29290446 14.5475431,4.34817055 14.4696336,4.34817055 L14.3619181,4.34817055 C14.2670474,4.34817055 14.1927155,4.2670179 14.2015948,4.17309341 L14.2662931,3.48679957 C14.2695259,3.45242702 14.2838578,3.42002596 14.3071336,3.39441798 L14.410625,3.28049998 C14.4489009,3.23832717 14.5067888,3.21949084 14.5627371,3.23099836 Z M11.4038793,1.74174973 L11.5122198,1.24026193 C11.5596121,1.02089048 11.7434914,0.856656544 11.967931,0.83325578 L12.0598276,0.823655466 C12.0791379,0.83001996 12.0987931,0.836255878 12.1176509,0.842834664 C13.1134483,1.19071745 13.6857759,1.50827782 13.9905172,1.7133988 C14.1712931,1.83498849 14.2995259,2.04231669 14.3424784,2.28232452 C14.3477155,2.31151119 14.3527802,2.34056928 14.3576293,2.36952023 L11.9140086,2.36952023 C11.8026078,2.36952023 11.6941595,2.33407621 11.6044828,2.26837407 C11.4392672,2.14736298 11.3607759,1.94125625 11.4038793,1.74174973 Z M9.17431034,3.53385825 L8.63551724,3.53385825 C8.5343319,3.53385825 8.45232759,3.45229844 8.45232759,3.35170944 C8.45232759,3.25112044 8.5343319,3.16956064 8.63551724,3.16956064 L9.17431034,3.16956064 C9.27547414,3.16956064 9.3575,3.25112044 9.3575,3.35170944 C9.3575,3.45229844 9.27547414,3.53385825 9.17431034,3.53385825 Z M6.1137069,1.4162391 C6.19635776,1.34601538 6.26771552,1.28534911 6.33092672,1.23383315 C6.42478448,1.15726636 6.81887931,0.967724456 7.63918103,0.797811765 C8.32174569,0.656442863 9.07890086,0.572847277 9.79534483,0.558296802 L9.54484914,1.98722203 C9.48161638,2.34787667 9.17396552,2.6158497 8.80609914,2.63070019 L5.06502155,2.7816694 C4.85196121,2.79026254 4.6469181,2.71189569 4.49497845,2.56849101 C5.17428879,2.21413658 5.72303879,1.74817851 6.1137069,1.4162391 Z M2.85243534,4.57675659 C3.36646552,4.57675659 3.78454741,4.99248445 3.78454741,5.50357257 C3.78454741,5.52821623 3.78346983,5.5526456 3.78153017,5.57664638 C3.74403017,6.05344766 3.34165948,6.43017425 2.85243534,6.43017425 C2.36321121,6.43017425 1.96084052,6.05344766 1.92336207,5.57664638 C1.92140086,5.5526456 1.92032328,5.52821623 1.92032328,5.50357257 C1.92034483,4.99248445 2.33844828,4.57675659 2.85243534,4.57675659 Z M1.02413793,3.54815157 C1.17094828,3.54815157 1.28993534,3.72723599 1.28993534,3.94817178 C1.28993534,4.16908613 1.17094828,4.34819198 1.02413793,4.34819198 C0.877349138,4.34819198 0.758340517,4.16910756 0.758340517,3.94817178 C0.758362069,3.72723599 0.877349138,3.54815157 1.02413793,3.54815157 Z" id="Shape"></path>
                </g>
            </g>
        </g>
    </g>
</svg>