<?xml version="1.0" encoding="UTF-8"?>
<svg width="24px" height="24px" viewBox="0 0 24 24" version="1.1" xmlns="http://www.w3.org/2000/svg" xmlns:xlink="http://www.w3.org/1999/xlink">
    <title>Group 32</title>
    <g id="Homepage" stroke="none" stroke-width="1" fill="none" fill-rule="evenodd">
        <g id="3,0-Asset-Page" transform="translate(-73.000000, -467.000000)">
            <g id="Actions" transform="translate(16.000000, 444.000000)">
                <g id="Report" transform="translate(32.000000, 17.000000)">
                    <g id="Group-32" transform="translate(25.000000, 6.000000)">
                        <rect id="Rectangle-Copy-13" x="0" y="0" width="24" height="24"></rect>
                        <g id="flag-(1)" transform="translate(5.000000, 2.000000)" fill="#212237" fill-rule="nonzero">
                            <path d="M13.6086325,1.06717949 C13.3659402,0.962179487 13.0875641,1.00803419 12.8945299,1.18846154 C12.78,1.28940171 10.6573932,3.08846154 7.34952991,1.10987179 C5.17465812,-0.190940171 3.37034188,-0.114786325 2.23965812,0.178247863 C1.01059829,0.496709402 0.303675214,1.11974359 0.227136752,1.18978632 C0.0894444444,1.31564103 0.0110683761,1.49358974 0.0110683761,1.68012821 L0.0110683761,18.6485997 C0.0110683761,19.0155228 0.308547009,19.3130442 0.675512821,19.3130442 C1.0424359,19.3130442 1.33995726,19.0155655 1.33995726,18.6485997 L1.33995726,8.85324786 C1.96547009,8.43200855 3.91102564,7.4465812 6.66747863,9.09534188 C8.08277778,9.94188034 9.34102564,10.2052564 10.3589744,10.2052564 C10.9052564,10.2052564 11.3824359,10.129359 11.7773504,10.0270513 C13.0063675,9.70858974 13.7132906,9.08555556 13.7898718,9.01551282 C13.9275214,8.88965812 14.0059829,8.7117094 14.0059829,8.52517094 L14.0059829,1.68017094 C14.0059829,1.41512821 13.8518803,1.17239316 13.6086325,1.06717949 Z M7.34961538,7.95487179 C5.9342735,7.10833333 4.67602564,6.84495726 3.65807692,6.84495726 C3.11179487,6.84495726 2.63461538,6.9208547 2.23970085,7.02316239 C1.89884615,7.11149573 1.59816239,7.22324786 1.33991453,7.34008547 L1.33991453,2.00820513 C1.96581197,1.58688034 3.91153846,0.601965812 6.6674359,2.25038462 C8.84222222,3.55119658 10.6465385,3.475 11.7773504,3.18209402 C12.1182051,3.09376068 12.4188462,2.98200855 12.6771368,2.86517094 L12.6771368,8.19777778 C12.0464103,8.6257265 10.1109402,9.6065812 7.34961538,7.95487179 Z" id="Shape"></path>
                        </g>
                    </g>
                </g>
            </g>
        </g>
    </g>
</svg>