<?xml version="1.0" encoding="UTF-8"?>
<svg width="38px" height="38px" viewBox="0 0 38 38" version="1.1" xmlns="http://www.w3.org/2000/svg" xmlns:xlink="http://www.w3.org/1999/xlink">
    <title>Camera</title>
    <g id="Homepage" stroke="none" stroke-width="1" fill="none" fill-rule="evenodd">
        <g id="0,2-Multi-Village-Home-Member" transform="translate(-317.000000, -530.000000)" fill="#FFFFFF" fill-rule="nonzero">
            <g id="Actions" transform="translate(215.000000, 530.000000)">
                <g id="Post-Photos" transform="translate(8.000000, 0.000000)">
                    <g id="Camera" transform="translate(94.000000, 0.000000)">
                        <g id="camera-(1)" transform="translate(8.500000, 10.000000)">
                            <path d="M18.28,2.4 L14.27248,2.4 L13.88276,1.2308 C13.63732,0.4946 12.95104,0 12.17508,0 L8.30492,0 C7.52896,0 6.84268,0.4946 6.59728,1.2308 L6.20752,2.4 L5.24,2.4 L5.24,1.4 C5.24,0.62804 4.61196,0 3.84,0 L3.04,0 C2.26804,0 1.64,0.62804 1.64,1.4 L1.64,2.47248 C0.69728,2.7208 0,3.5804 0,4.6 L0,15 C0,16.21308 0.98692,17.2 2.2,17.2 L18.28,17.2 C19.49308,17.2 20.48,16.21308 20.48,15 L20.48,4.6 C20.48,3.38692 19.49308,2.4 18.28,2.4 Z M2.84,1.4 C2.84,1.28972 2.92972,1.2 3.04,1.2 L3.84,1.2 C3.95028,1.2 4.04,1.28972 4.04,1.4 L4.04,2.4 L2.84,2.4 L2.84,1.4 Z M19.28,15 C19.28,15.5514 18.8314,16 18.28,16 L2.2,16 C1.6486,16 1.2,15.5514 1.2,15 L1.2,4.6 C1.2,4.0486 1.6486,3.6 2.2,3.6 L6.64,3.6 C6.89824,3.6 7.12752,3.43476 7.2092,3.18972 L7.73568,1.61028 C7.81752,1.36488 8.04624,1.2 8.30492,1.2 L12.17508,1.2 C12.43376,1.2 12.66252,1.36488 12.74428,1.61024 L13.27076,3.18972 C13.35248,3.43476 13.58176,3.6 13.84,3.6 L18.28,3.6 C18.8314,3.6 19.28,4.0486 19.28,4.6 L19.28,15 Z" id="Shape"></path>
                            <circle id="Oval" cx="17.44" cy="5.4" r="1"></circle>
                            <path d="M10.24,14.8 C7.26244,14.8 4.84,12.37756 4.84,9.4 C4.84,6.42244 7.26244,4 10.24,4 C13.21756,4 15.64,6.42244 15.64,9.4 C15.64,12.37756 13.21756,14.8 10.24,14.8 Z M10.24,5.2 C7.92412,5.2 6.04,7.08412 6.04,9.4 C6.04,11.71588 7.92412,13.6 10.24,13.6 C12.55588,13.6 14.44,11.71588 14.44,9.4 C14.44,7.08412 12.55588,5.2 10.24,5.2 Z" id="Shape"></path>
                            <path d="M10.24,12.4 C8.5858,12.4 7.24,11.0542 7.24,9.4 C7.24,7.7458 8.5858,6.4 10.24,6.4 C11.8942,6.4 13.24,7.7458 13.24,9.4 C13.24,11.0542 11.8942,12.4 10.24,12.4 Z M10.24,7.6 C9.24748,7.6 8.44,8.40748 8.44,9.4 C8.44,10.39252 9.24748,11.2 10.24,11.2 C11.23252,11.2 12.04,10.39252 12.04,9.4 C12.04,8.40748 11.23252,7.6 10.24,7.6 Z" id="Shape"></path>
                        </g>
                    </g>
                </g>
            </g>
        </g>
    </g>
</svg>