<?xml version="1.0" encoding="UTF-8"?>
<svg width="17px" height="17px" viewBox="0 0 17 17" version="1.1" xmlns="http://www.w3.org/2000/svg" xmlns:xlink="http://www.w3.org/1999/xlink">
    <title>calendar (2) copy 3</title>
    <g id="Page-1" stroke="none" stroke-width="1" fill="none" fill-rule="evenodd">
        <g id="0,2-Events-Multiple-days" transform="translate(-299.000000, -385.000000)" fill="#FFFFFF" fill-rule="nonzero">
            <g id="Group-6" transform="translate(16.000000, 236.000000)">
                <g id="Add" transform="translate(271.000000, 137.000000)">
                    <g id="calendar-(2)-copy-3" transform="translate(12.000000, 12.000000)">
                        <path d="M15.4394531,1.09570312 L14.2773438,1.09570312 L14.2773438,0.498046875 C14.2773438,0.222992187 14.0543516,0 13.7792969,0 C13.5042422,0 13.28125,0.222992187 13.28125,0.498046875 L13.28125,1.09570312 L11.6210938,1.09570312 L11.6210938,0.498046875 C11.6210938,0.222992187 11.3981016,0 11.1230469,0 C10.8479922,0 10.625,0.222992187 10.625,0.498046875 L10.625,1.09570312 L8.96484375,1.09570312 L8.96484375,0.498046875 C8.96484375,0.222992187 8.74185156,0 8.46679688,0 C8.19174219,0 7.96875,0.222992187 7.96875,0.498046875 L7.96875,1.09570312 L6.30859375,1.09570312 L6.30859375,0.498046875 C6.30859375,0.222992187 6.08560156,0 5.81054688,0 C5.53549219,0 5.3125,0.222992187 5.3125,0.498046875 L5.3125,1.09570312 L3.65234375,1.09570312 L3.65234375,0.498046875 C3.65234375,0.222992187 3.42935156,0 3.15429688,0 C2.87924219,0 2.65625,0.222992187 2.65625,0.498046875 L2.65625,1.09570312 L1.49414062,1.09570312 C0.670271484,1.09570312 0,1.76597461 0,2.58984375 L0,12.2851562 C0,13.1090254 0.670271484,13.7792969 1.49414062,13.7792969 L9.59563672,13.7792969 C9.83758789,15.5951426 11.3831934,17 13.2480469,17 C15.2802773,17 16.9335938,15.3317754 16.9335938,13.28125 L16.9335938,2.58984375 C16.9335938,1.76597461 16.2633223,1.09570312 15.4394531,1.09570312 Z M1.49414062,2.09179688 L2.65625,2.09179688 L2.65625,2.65625 C2.65625,2.93130469 2.87924219,3.15429688 3.15429688,3.15429688 C3.42935156,3.15429688 3.65234375,2.93130469 3.65234375,2.65625 L3.65234375,2.09179688 L5.3125,2.09179688 L5.3125,2.65625 C5.3125,2.93130469 5.53549219,3.15429688 5.81054688,3.15429688 C6.08560156,3.15429688 6.30859375,2.93130469 6.30859375,2.65625 L6.30859375,2.09179688 L7.96875,2.09179688 L7.96875,2.65625 C7.96875,2.93130469 8.19174219,3.15429688 8.46679688,3.15429688 C8.74185156,3.15429688 8.96484375,2.93130469 8.96484375,2.65625 L8.96484375,2.09179688 L10.625,2.09179688 L10.625,2.65625 C10.625,2.93130469 10.8479922,3.15429688 11.1230469,3.15429688 C11.3981016,3.15429688 11.6210938,2.93130469 11.6210938,2.65625 L11.6210938,2.09179688 L13.28125,2.09179688 L13.28125,2.65625 C13.28125,2.93130469 13.5042422,3.15429688 13.7792969,3.15429688 C14.0543516,3.15429688 14.2773438,2.93130469 14.2773438,2.65625 L14.2773438,2.09179688 L15.4394531,2.09179688 C15.7140762,2.09179688 15.9375,2.3152207 15.9375,2.58984375 L15.9375,4.28320312 L0.99609375,4.28320312 L0.99609375,2.58984375 C0.99609375,2.3152207 1.21951758,2.09179688 1.49414062,2.09179688 Z M13.2480469,16.0039062 C11.7650625,16.0039062 10.5585938,14.7825293 10.5585938,13.28125 C10.5585938,11.7982656 11.7650625,10.5917969 13.2480469,10.5917969 C14.7310313,10.5917969 15.9375,11.7982656 15.9375,13.28125 C15.9375,14.7825293 14.7310313,16.0039062 13.2480469,16.0039062 Z M13.2480469,9.59570312 C11.3847207,9.59570312 9.84017773,10.9857188 9.59626758,12.7832031 L1.49414062,12.7832031 C1.21951758,12.7832031 0.99609375,12.5597793 0.99609375,12.2851562 L0.99609375,5.27929688 L15.9375,5.27929688 L15.9375,10.7641543 C15.2645391,10.0455723 14.3078906,9.59570312 13.2480469,9.59570312 Z" id="Shape"></path>
                        <path d="M14.3105469,12.7832031 L13.7460938,12.7832031 L13.7460938,12.21875 C13.7460938,11.9436953 13.5231016,11.7207031 13.2480469,11.7207031 C12.9729922,11.7207031 12.75,11.9436953 12.75,12.21875 L12.75,12.7832031 L12.1855469,12.7832031 C11.9104922,12.7832031 11.6875,13.0061953 11.6875,13.28125 C11.6875,13.5563047 11.9104922,13.7792969 12.1855469,13.7792969 L12.75,13.7792969 L12.75,14.34375 C12.75,14.6188047 12.9729922,14.8417969 13.2480469,14.8417969 C13.5231016,14.8417969 13.7460938,14.6188047 13.7460938,14.34375 L13.7460938,13.7792969 L14.3105469,13.7792969 C14.5856016,13.7792969 14.8085938,13.5563047 14.8085938,13.28125 C14.8085938,13.0061953 14.5856016,12.7832031 14.3105469,12.7832031 Z" id="Path"></path>
                        <path d="M4.70521484,6.80896484 C4.64428711,6.51684375 4.35375977,6.34581445 4.07203125,6.42978516 C3.78412695,6.52361719 3.66678711,6.80929688 3.74033203,7.05068359 C3.83047852,7.33344141 4.11522852,7.45758789 4.36123047,7.38271484 C4.61842188,7.30063672 4.75140039,7.05569727 4.70521484,6.80896484 L4.70521484,6.80896484 Z" id="Path"></path>
                        <path d="M6.83021484,6.80896484 C6.76928711,6.51684375 6.47875977,6.34581445 6.19703125,6.42978516 C5.90912695,6.52361719 5.79178711,6.80929688 5.86533203,7.05068359 C5.95547852,7.33344141 6.24022852,7.45758789 6.48623047,7.38271484 C6.74332227,7.30066992 6.87640039,7.05569727 6.83021484,6.80896484 L6.83021484,6.80896484 Z" id="Path"></path>
                        <path d="M8.95521484,6.80896484 C8.89428711,6.51684375 8.60375977,6.34581445 8.32203125,6.42978516 C8.03412695,6.52361719 7.91678711,6.80929688 7.99033203,7.05068359 C8.07964844,7.33088477 8.36021484,7.45762109 8.6115625,7.38271484 C8.8729375,7.29751563 9.00066992,7.0517793 8.95521484,6.80896484 Z" id="Path"></path>
                        <path d="M11.0802148,6.80896484 C11.0192871,6.51684375 10.7287598,6.34581445 10.4470313,6.42978516 C10.159127,6.52361719 10.0417871,6.80929688 10.115332,7.05068359 C10.2046484,7.33088477 10.4852148,7.45762109 10.7365625,7.38271484 C10.9979375,7.29751563 11.1256699,7.0517793 11.0802148,6.80896484 Z" id="Path"></path>
                        <path d="M13.2052148,6.80896484 C13.1442871,6.51684375 12.8537598,6.34581445 12.5720312,6.42978516 C12.2854883,6.52315234 12.1664219,6.80800195 12.240332,7.05068359 C12.3296484,7.33088477 12.6102148,7.45762109 12.8615625,7.38271484 C13.1221738,7.29774805 13.2508691,7.0528418 13.2052148,6.80896484 Z" id="Path"></path>
                        <path d="M4.70521484,8.93396484 C4.6441875,8.64137891 4.35329492,8.47094727 4.07203125,8.55478516 C3.78545508,8.64818555 3.66642188,8.93300195 3.74033203,9.17568359 C3.82961523,9.45578516 4.11001563,9.5826875 4.3615625,9.50771484 C4.62287109,9.42254883 4.75066992,9.1767793 4.70521484,8.93396484 L4.70521484,8.93396484 Z" id="Path"></path>
                        <path d="M6.83021484,8.93396484 C6.76928711,8.64184375 6.47875977,8.47081445 6.19703125,8.55478516 C5.90912695,8.64861719 5.79178711,8.93426367 5.86533203,9.17568359 C5.95551172,9.45854102 6.24022852,9.58258789 6.48623047,9.50771484 C6.74362109,9.42557031 6.87636719,9.18043164 6.83021484,8.93396484 L6.83021484,8.93396484 Z" id="Path"></path>
                        <path d="M8.95521484,8.93396484 C8.8941875,8.64137891 8.60329492,8.47094727 8.32203125,8.55478516 C8.03545508,8.64818555 7.91642187,8.93300195 7.99033203,9.17568359 C8.07961523,9.45578516 8.36001562,9.5826875 8.6115625,9.50771484 C8.87287109,9.42254883 9.00066992,9.1767793 8.95521484,8.93396484 L8.95521484,8.93396484 Z" id="Path"></path>
                        <path d="M4.70521484,11.0589648 C4.64375586,10.7643535 4.35120313,10.5965781 4.07203125,10.6797852 C3.78628516,10.7729199 3.66691992,11.0546484 3.74033203,11.3010156 C3.83333398,11.5863965 4.11463086,11.706293 4.3615625,11.6327148 C4.6229043,11.5475156 4.75066992,11.3017793 4.70521484,11.0589648 L4.70521484,11.0589648 Z" id="Path"></path>
                        <path d="M6.83021484,11.0589648 C6.76875586,10.7643535 6.47620312,10.5965781 6.19703125,10.6797852 C5.91115234,10.7729531 5.79198633,11.0548477 5.86533203,11.3010156 C5.95833398,11.5863965 6.23963086,11.706293 6.4865625,11.6327148 C6.74800391,11.5475156 6.87566992,11.3017793 6.83021484,11.0589648 L6.83021484,11.0589648 Z" id="Path"></path>
                        <path d="M8.95521484,11.0589648 C8.89375586,10.7643535 8.60120313,10.5965781 8.32203125,10.6797852 C8.03605273,10.7729863 7.91691992,11.0546152 7.99033203,11.3010156 C8.08333398,11.5863965 8.36463086,11.706293 8.6115625,11.6327148 C8.8729043,11.5475156 9.00066992,11.3017793 8.95521484,11.0589648 L8.95521484,11.0589648 Z" id="Path"></path>
                        <path d="M11.0802148,8.93396484 C11.0192871,8.64184375 10.7287598,8.47081445 10.4470313,8.55478516 C10.1602891,8.64821875 10.0414551,8.93313477 10.115332,9.17568359 C10.2046484,9.45581836 10.4850156,9.5826875 10.7365625,9.50771484 C10.9978711,9.42254883 11.1256699,9.1767793 11.0802148,8.93396484 L11.0802148,8.93396484 Z" id="Path"></path>
                    </g>
                </g>
            </g>
        </g>
    </g>
</svg>