<?xml version="1.0" encoding="UTF-8"?>
<svg width="19px" height="19px" viewBox="0 0 19 19" version="1.1" xmlns="http://www.w3.org/2000/svg" xmlns:xlink="http://www.w3.org/1999/xlink">
    <title>phone-call</title>
    <g id="Homepage" stroke="none" stroke-width="1" fill="none" fill-rule="evenodd">
        <g id="3,0-Asset-Page" transform="translate(-330.000000, -366.000000)" fill="#429C9B" fill-rule="nonzero">
            <g id="Phone" transform="translate(319.000000, 355.000000)">
                <g id="phone-call" transform="translate(11.000000, 11.000000)">
                    <path d="M14.9782402,11.7402402 C14.5902402,11.3362402 14.1222402,11.1202402 13.6262402,11.1202402 C13.1342402,11.1202402 12.6622402,11.3322402 12.2582402,11.7362402 L10.9942402,12.9962402 C10.8902402,12.9402402 10.7862402,12.8882402 10.6862402,12.8362402 C10.5422402,12.7642402 10.4062402,12.6962402 10.2902402,12.6242402 C9.10624014,11.8722402 8.03024012,10.8922402 6.9982401,9.62424014 C6.4982401,8.99224013 6.16224009,8.46024013 5.91824009,7.92024012 C6.24624009,7.62024011 6.5502401,7.30824011 6.8462401,7.0082401 C6.9582401,6.8962401 7.07024011,6.7802401 7.18224011,6.6682401 C8.02224012,5.82824009 8.02224012,4.74024007 7.18224011,3.90024006 L6.09024009,2.80824004 C5.96624009,2.68424004 5.83824009,2.55624004 5.71824009,2.42824004 C5.47824008,2.18024003 5.22624008,1.92424003 4.96624007,1.68424003 C4.57824007,1.30024002 4.11424006,1.09624002 3.62624005,1.09624002 C3.13824005,1.09624002 2.66624004,1.30024002 2.26624003,1.68424003 C2.26224003,1.68824003 2.26224003,1.68824003 2.25824003,1.69224003 L0.898240013,3.06424005 C0.386240006,3.57624005 0.0942400014,4.20024006 0.0302400005,4.92424007 C-0.065760001,6.09224009 0.278240004,7.18024011 0.542240008,7.89224012 C1.19024002,9.64024014 2.15824003,11.2602402 3.60224005,12.9962402 C5.35424008,15.0882402 7.46224011,16.7402402 9.87024015,17.9042403 C10.7902402,18.3402403 12.0182402,18.8562403 13.3902402,18.9442403 C13.4742402,18.9482403 13.5622402,18.9522403 13.6422402,18.9522403 C14.5662402,18.9522403 15.3422402,18.6202403 15.9502402,17.9602403 C15.9542402,17.9522403 15.9622402,17.9482403 15.9662402,17.9402403 C16.1742402,17.6882403 16.4142402,17.4602403 16.6662402,17.2162403 C16.8382403,17.0522403 17.0142403,16.8802403 17.1862403,16.7002402 C17.5822403,16.2882402 17.7902403,15.8082402 17.7902403,15.3162402 C17.7902403,14.8202402 17.5782403,14.3442402 17.1742403,13.9442402 L14.9782402,11.7402402 Z M16.4102402,15.9522402 C16.4062402,15.9522402 16.4062402,15.9562402 16.4102402,15.9522402 C16.2542402,16.1202402 16.0942402,16.2722402 15.9222402,16.4402402 C15.6622402,16.6882402 15.3982402,16.9482403 15.1502402,17.2402403 C14.7462402,17.6722403 14.2702402,17.8762403 13.6462402,17.8762403 C13.5862402,17.8762403 13.5222402,17.8762403 13.4622402,17.8722403 C12.2742402,17.7962403 11.1702402,17.3322403 10.3422402,16.9362403 C8.07824012,15.8402402 6.09024009,14.2842402 4.43824007,12.3122402 C3.07424005,10.6682402 2.16224003,9.14824014 1.55824002,7.51624011 C1.18624002,6.5202401 1.05024002,5.74424009 1.11024002,5.01224007 C1.15024002,4.54424007 1.33024002,4.15624006 1.66224002,3.82424006 L3.02624005,2.46024004 C3.22224005,2.27624003 3.43024005,2.17624003 3.63424005,2.17624003 C3.88624006,2.17624003 4.09024006,2.32824003 4.21824006,2.45624004 C4.22224006,2.46024004 4.22624006,2.46424004 4.23024006,2.46824004 C4.47424007,2.69624004 4.70624007,2.93224004 4.95024007,3.18424005 C5.07424008,3.31224005 5.20224008,3.44024005 5.33024008,3.57224005 L6.4222401,4.66424007 C6.8462401,5.08824008 6.8462401,5.48024008 6.4222401,5.90424009 C6.30624009,6.02024009 6.19424009,6.13624009 6.07824009,6.24824009 C5.74224009,6.5922401 5.42224008,6.9122401 5.07424008,7.22424011 C5.06624008,7.23224011 5.05824008,7.23624011 5.05424008,7.24424011 C4.71024007,7.58824011 4.77424007,7.92424012 4.84624007,8.15224012 C4.85024007,8.16424012 4.85424007,8.17624003 4.85824007,8.18824012 C5.14224008,8.87624013 5.54224008,9.52424014 6.15024009,10.2962402 L6.15424009,10.3002402 C7.25824011,11.6602402 8.42224013,12.7202402 9.70624014,13.5322402 C9.87024015,13.6362402 10.0382401,13.7202402 10.1982402,13.8002402 C10.3422402,13.8722402 10.4782402,13.9402402 10.5942402,14.0122402 C10.6102402,14.0202402 10.6262402,14.0322402 10.6422402,14.0402402 C10.7782402,14.1082402 10.9062402,14.1402402 11.0382402,14.1402402 C11.3702402,14.1402402 11.5782402,13.9322402 11.6462402,13.8642402 L13.0142402,12.4962402 C13.1502402,12.3602402 13.3662402,12.1962402 13.6182402,12.1962402 C13.8662402,12.1962402 14.0702402,12.3522402 14.1942402,12.4882402 C14.1982402,12.4922402 14.1982402,12.4922402 14.2022402,12.4962402 L16.4062402,14.7002402 C16.8182403,15.1082402 16.8182403,15.5282402 16.4102402,15.9522402 Z" id="Shape"></path>
                    <path d="M10.2422402,4.50824007 C11.2902402,4.68424007 12.2422402,5.18024008 13.0022402,5.94024009 C13.7622402,6.7002401 14.2542402,7.65224011 14.4342402,8.70024013 C14.4782402,8.96424013 14.7062402,9.14824014 14.9662402,9.14824014 C14.9982402,9.14824014 15.0262402,9.14424014 15.0582402,9.14024014 C15.3542402,9.09224014 15.5502402,8.81224013 15.5022402,8.51624013 C15.2862402,7.24824011 14.6862402,6.09224009 13.7702402,5.17624008 C12.8542402,4.26024006 11.6982402,3.66024005 10.4302402,3.44424005 C10.1342402,3.39624005 9.85824015,3.59224005 9.80624015,3.88424006 C9.75424015,4.17624006 9.94624015,4.46024007 10.2422402,4.50824007 Z" id="Path"></path>
                    <path d="M18.9302403,8.36024012 C18.5742403,6.27224009 17.5902403,4.37224007 16.0782402,2.86024004 C14.5662402,1.34824002 12.6662402,0.364240005 10.5782402,0.00824000012 C10.2862402,-0.0437600007 10.0102401,0.156240002 9.95824015,0.448240007 C9.91024015,0.744240011 10.1062402,1.02024002 10.4022402,1.07224002 C12.2662402,1.38824002 13.9662402,2.27224003 15.3182402,3.62024005 C16.6702402,4.97224007 17.5502403,6.6722401 17.8662403,8.53624013 C17.9102403,8.80024013 18.1382403,8.98424013 18.3982403,8.98424013 C18.4302403,8.98424013 18.4582403,8.98024013 18.4902403,8.97624013 C18.7822403,8.93224013 18.9822403,8.65224013 18.9302403,8.36024012 Z" id="Path"></path>
                </g>
            </g>
        </g>
    </g>
</svg>