<?xml version="1.0" encoding="UTF-8"?>
<svg width="17px" height="17px" viewBox="0 0 17 17" version="1.1" xmlns="http://www.w3.org/2000/svg" xmlns:xlink="http://www.w3.org/1999/xlink">
    <title>export</title>
    <g id="Page-1" stroke="none" stroke-width="1" fill="none" fill-rule="evenodd">
        <g id="2,0-Facility" transform="translate(-32.000000, -403.000000)" fill="#419C9B" fill-rule="nonzero">
            <g id="External-Link" transform="translate(16.000000, 395.000000)">
                <g id="export" transform="translate(16.000000, 8.000000)">
                    <path d="M12.0396451,1.64079823 L15.0504574,1.64079823 L8.16717494,8.52549889 C7.94427502,8.74833703 7.94427502,9.11086475 8.16717494,9.33370288 C8.27696146,9.44345898 8.4233435,9.5 8.56972553,9.5 C8.71610757,9.5 8.8624896,9.44345898 8.97227613,9.33370288 L15.8588855,2.44900222 L15.8588855,5.45898004 C15.8588855,5.77494457 16.1150541,6.03104213 16.4277793,6.03104213 C16.7438314,6.03104213 17,5.77494457 17,5.45898004 L17,1.07206208 C17,0.756097561 16.7438314,0.5 16.4277793,0.5 L12.0396451,0.5 C11.723593,0.5 11.4674245,0.756097561 11.4674245,1.07206208 C11.4707513,1.38470067 11.723593,1.64079823 12.0396451,1.64079823 Z" id="Path"></path>
                    <path d="M3.56927158,16.5 L13.4307284,16.5 C15.4009386,16.5 17,14.9920441 17,13.1413709 L17,8.77090983 C17,8.46083231 16.7329117,8.2127703 16.4033871,8.2127703 C16.0738625,8.2127703 15.8102428,8.46409629 15.8102428,8.77090983 L15.8102428,13.1381069 C15.8102428,14.371889 14.7418894,15.377193 13.4307284,15.377193 L3.56927158,15.377193 C2.25811059,15.377193 1.18975719,14.371889 1.18975719,13.1381069 L1.18975719,5.76805386 L1.18975719,3.8618931 C1.18975719,2.62811098 2.25811059,1.62280702 3.56927158,1.62280702 L8.17220975,1.62280702 C8.50173434,1.62280702 8.76535401,1.37148103 8.76535401,1.06140351 C8.76535401,0.751325989 8.49826566,0.5 8.17220975,0.5 L3.56927158,0.5 C1.59906142,0.5 0,2.00795594 0,3.85862913 L0,5.76478988 L0,13.1381069 C0,14.9920441 1.6025301,16.5 3.56927158,16.5 Z" id="Path"></path>
                </g>
            </g>
        </g>
    </g>
</svg>