<?xml version="1.0" encoding="UTF-8"?>
<svg width="38px" height="38px" viewBox="0 0 38 38" version="1.1" xmlns="http://www.w3.org/2000/svg" xmlns:xlink="http://www.w3.org/1999/xlink">
    <title>Edit</title>
    <g id="Homepage" stroke="none" stroke-width="1" fill="none" fill-rule="evenodd">
        <g id="0,2-Multi-Village-Home-Member" transform="translate(-317.000000, -584.000000)" fill="#FFFFFF" fill-rule="nonzero">
            <g id="Actions" transform="translate(215.000000, 530.000000)">
                <g id="Write-Review" transform="translate(0.000000, 54.000000)">
                    <g id="Edit" transform="translate(102.000000, 0.000000)">
                        <g id="edit" transform="translate(10.000000, 9.000000)">
                            <path d="M15.70132,9.55748 C15.32428,9.55748 15.01864,9.86312 15.01864,10.24016 L15.01864,17.0668 C15.01864,17.44384 14.713,17.74948 14.33596,17.74948 L2.048,17.74948 C1.67096,17.74948 1.36532,17.44384 1.36532,17.0668 L1.36532,3.41348 C1.36532,3.03644 1.67096,2.7308 2.048,2.7308 L10.24,2.7308 C10.61704,2.7308 10.92268,2.42516 10.92268,2.04812 C10.92268,1.67108 10.61704,1.36548 10.24,1.36548 L2.048,1.36548 C0.91692,1.36548 0,2.2824 0,3.41348 L0,17.0668 C0,18.19788 0.91692,19.1148 2.048,19.1148 L14.336,19.1148 C15.46708,19.1148 16.384,18.19788 16.384,17.0668 L16.384,10.24012 C16.384,9.86312 16.07836,9.55748 15.70132,9.55748 Z" id="Path"></path>
                            <path d="M18.34968,0.76568 C17.85952,0.27544 17.19468,0.000149199547 16.50144,0.000149199547 C15.8078,-0.00184 15.14228,0.274 14.65348,0.76612 L5.66136,9.75748 C5.58676,9.83264 5.53048,9.924 5.49684,10.0244 L4.13152,14.1204 C4.01236,14.47812 4.20576,14.86468 4.56348,14.9838 C4.63288,15.00692 4.70556,15.0188 4.77868,15.0188 C4.85196,15.0188 4.9248,15.00692 4.9944,14.984 L9.0904,13.61868 C9.191,13.58508 9.2824,13.52852 9.35732,13.45348 L18.3494,4.4614 C19.37,3.44092 19.37012,1.78628 18.34968,0.76568 Z M17.38412,3.49676 L8.50944,12.37144 L5.85796,13.25684 L6.74064,10.60876 L15.61872,1.73412 C16.1068,1.247 16.8974,1.2478 17.38452,1.73588 C17.6172,1.96904 17.74832,2.28468 17.749324,2.61408 C17.75016,2.94524 17.61868,3.263 17.38412,3.49676 Z" id="Shape"></path>
                        </g>
                    </g>
                </g>
            </g>
        </g>
    </g>
</svg>