<?xml version="1.0" encoding="UTF-8"?>
<svg width="32px" height="32px" viewBox="0 0 32 32" version="1.1" xmlns="http://www.w3.org/2000/svg" xmlns:xlink="http://www.w3.org/1999/xlink">
    <title>instagram 2</title>
    <g id="Page-1" stroke="none" stroke-width="1" fill="none" fill-rule="evenodd">
        <g id="HP" transform="translate(-288.000000, -782.000000)" fill="#E75D52" fill-rule="nonzero">
            <g id="Social-icons" transform="translate(245.000000, 782.000000)">
                <g id="instagram" transform="translate(43.000000, 0.000000)">
                    <path d="M20.6520882,8.57142857 L11.061839,8.57142857 C9.53109876,8.57142857 8.28571429,9.81681305 8.28571429,11.3475533 L8.28571429,20.9378025 C8.28571429,22.4685427 9.53109876,23.7142857 11.061839,23.7142857 L20.6520882,23.7142857 C22.1828285,23.7142857 23.4285714,22.4689012 23.4285714,20.9378025 L23.4285714,11.3475533 C23.4285714,9.81681305 22.183187,8.57142857 20.6520882,8.57142857 Z M15.8569636,21.1278007 C13.1084424,21.1278007 10.8721993,18.8915576 10.8721993,16.1426779 C10.8721993,13.3941567 13.1084424,11.1579136 15.8569636,11.1579136 C18.6058433,11.1579136 20.8420864,13.3941567 20.8420864,16.1426779 C20.8420864,18.8911991 18.6054849,21.1278007 15.8569636,21.1278007 Z M21.0023302,12.1885643 C20.3516759,12.1885643 19.8225488,11.6594372 19.8225488,11.0091414 C19.8225488,10.3588457 20.3516759,9.82971859 21.0023302,9.82971859 C21.6526259,9.82971859 22.181753,10.3588457 22.181753,11.0091414 C22.181753,11.6594372 21.6526259,12.1885643 21.0023302,12.1885643 Z" id="Shape"></path>
                    <path d="M16.0001779,13.1428571 C14.4252711,13.1428571 13.1428571,14.4245594 13.1428571,15.9994663 C13.1428571,17.5750847 14.4252711,18.8571429 16.0001779,18.8571429 C17.5757964,18.8571429 18.8571429,17.5750847 18.8571429,15.9994663 C18.8571429,14.4249153 17.5754406,13.1428571 16.0001779,13.1428571 Z" id="Path"></path>
                    <path d="M16,0 C7.16379598,0 0,7.16379598 0,16 C0,24.836204 7.16379598,32 16,32 C24.836204,32 32,24.836204 32,16 C32,7.16379598 24.836204,0 16,0 Z M25.6244569,20.8118719 C25.6244569,23.4896499 23.4465117,25.6675951 20.7687337,25.6675951 L11.2312663,25.6675951 C8.55384478,25.6675951 6.37554313,23.4896499 6.37554313,20.8118719 L6.37554313,11.2744045 C6.37554313,8.596983 8.55384478,6.41868134 11.2312663,6.41868134 L20.7687337,6.41868134 C23.4465117,6.41868134 25.6244569,8.596983 25.6244569,11.2744045 L25.6244569,20.8118719 Z" id="Shape"></path>
                </g>
            </g>
        </g>
    </g>
</svg>