<?xml version="1.0" encoding="UTF-8"?>
<svg width="24px" height="24px" viewBox="0 0 24 24" version="1.1" xmlns="http://www.w3.org/2000/svg" xmlns:xlink="http://www.w3.org/1999/xlink">
    <title>Group 28</title>
    <g id="Page-1" stroke="none" stroke-width="1" fill="none" fill-rule="evenodd">
        <g id="2,0-Facility" transform="translate(-275.000000, -298.000000)">
            <g id="Group-2" transform="translate(267.000000, 290.000000)">
                <g id="Group-34" transform="translate(8.000000, 8.000000)">
                    <rect id="Rectangle-Copy-15" x="0" y="0" width="24" height="24"></rect>
                    <g id="icon/16x16/share" transform="translate(2.000000, 5.000000)" fill="#419C9B" fill-rule="nonzero">
                        <g id="mail" transform="translate(0.666667, 0.800000)">
                            <path d="M17.129401,0.00944270833 L1.53726562,0.00944270833 C0.689572917,0.00944270833 -3.90798505e-14,0.699015625 -3.90798505e-14,1.54670833 L-3.90798505e-14,12.3074948 C-3.90798505e-14,13.1549687 0.689572917,13.8447604 1.53726562,13.8447604 L17.1294375,13.8447604 C17.9769115,13.8447604 18.6667031,13.1549687 18.6667031,12.3074948 L18.6667031,1.54670833 C18.6667031,0.699015625 17.976875,0.00944270833 17.129401,0.00944270833 Z M17.349026,12.3074583 C17.349026,12.4264948 17.2484375,12.5270833 17.1294375,12.5270833 L1.53726562,12.5270833 C1.41822917,12.5270833 1.31764062,12.4264948 1.31764062,12.3074583 L1.31764062,3.85586979 L8.88948958,8.30754167 C9.09329167,8.42745312 9.34583854,8.42898437 9.55095312,8.31147917 L17.349026,3.84376562 L17.349026,12.3074583 Z M17.349026,2.32520312 L9.22793229,6.97783333 L1.31764062,2.32717187 L1.31764062,1.54667187 C1.31764062,1.42763542 1.41822917,1.32708333 1.53726562,1.32708333 L17.1294375,1.32708333 C17.248474,1.32708333 17.349026,1.42767187 17.349026,1.54667187 L17.349026,2.32520312 Z" id="Shape"></path>
                        </g>
                    </g>
                </g>
            </g>
        </g>
    </g>
</svg>