<?xml version="1.0" encoding="UTF-8"?>
<svg width="24px" height="24px" viewBox="0 0 24 24" version="1.1" xmlns="http://www.w3.org/2000/svg" xmlns:xlink="http://www.w3.org/1999/xlink">
    <title>Group 34</title>
    <g id="Homepage" stroke="none" stroke-width="1" fill="none" fill-rule="evenodd">
        <g id="3,0-Asset-Page" transform="translate(-230.000000, -467.000000)">
            <g id="Actions" transform="translate(16.000000, 444.000000)">
                <g id="Share" transform="translate(187.000000, 17.000000)">
                    <g id="Group-34" transform="translate(27.000000, 6.000000)">
                        <rect id="Rectangle-Copy-15" x="0" y="0" width="24" height="24"></rect>
                        <g id="Group" transform="translate(2.000000, 2.000000)" fill="#212237" fill-rule="nonzero">
                            <g id="share-(2)">
                                <path d="M19.3717957,8.47915648 L11.4141846,0.521545391 C11.0682678,0.175476094 10.7147217,6.9388939e-17 10.363617,6.9388939e-17 C9.87640383,6.9388939e-17 9.30740355,0.365142813 9.30740355,1.39389039 L9.30740355,6.30035398 C6.87850953,6.4657593 4.61868285,7.49786375 2.89199828,9.24255371 C1.0270691,11.1268616 -1.11022302e-15,13.6247254 -1.11022302e-15,16.2759399 C-1.11022302e-15,17.4179077 0.191650391,18.5394287 0.569915781,19.609375 C0.652618398,19.8434448 0.874023437,20 1.12228395,20 C1.37069703,20 1.59194945,19.8434448 1.67480469,19.609375 C2.83813477,16.3180542 5.85983277,14.0238953 9.30740355,13.7515259 L9.30740355,18.605957 C9.30740355,19.6347046 9.87625121,20 10.363617,20 C10.7147217,20 11.0681152,19.8245239 11.414032,19.4786072 L19.3719482,11.5206909 C19.7769165,11.1155701 20,10.5755615 20,9.99984742 C20,9.4242859 19.7767639,8.88412477 19.3717957,8.47915648 L19.3717957,8.47915648 Z M18.5432434,10.6921387 L10.5854797,18.6500549 C10.5479431,18.687439 10.5145264,18.7173462 10.4855347,18.7409973 C10.4815674,18.7037659 10.479126,18.6590576 10.479126,18.6061096 L10.479126,13.1388855 C10.479126,12.9824829 10.4165649,12.8323364 10.3051758,12.7223205 C10.1954651,12.6138305 10.0474548,12.552948 9.89318848,12.552948 C9.89105227,12.552948 9.88891602,12.5531006 9.88677977,12.5531006 C7.79998781,12.5762939 5.80718992,13.2359314 4.12384031,14.4604492 C2.94464109,15.3182984 1.98013305,16.4044189 1.2788391,17.6538086 C1.20773316,17.2001648 1.171875,16.7401123 1.171875,16.2759399 C1.171875,11.4624023 5.0871277,7.50274656 9.89974977,7.44918824 C10.2207947,7.44567871 10.4792786,7.18444824 10.4792786,6.86325074 L10.4792786,1.39389039 C10.4792786,1.34094238 10.48172,1.29638672 10.4855347,1.2590027 C10.5145264,1.28265383 10.5479431,1.31256102 10.5854797,1.35009766 L18.5432434,9.30786133 C18.7269592,9.49157715 18.828125,9.73724367 18.828125,10 C18.828125,10.2626037 18.7268066,10.5084229 18.5432434,10.6921387 Z" id="Shape"></path>
                            </g>
                        </g>
                    </g>
                </g>
            </g>
        </g>
    </g>
</svg>