<?xml version="1.0" encoding="UTF-8"?>
<svg width="19px" height="19px" viewBox="0 0 19 19" version="1.1" xmlns="http://www.w3.org/2000/svg" xmlns:xlink="http://www.w3.org/1999/xlink">
    <title>167-wall-clock</title>
    <g id="Page-1" stroke="none" stroke-width="1" fill="none" fill-rule="evenodd">
        <g id="0,1-Events-Multiple-days" transform="translate(-95.000000, -454.000000)" fill="#FFFFFF" fill-rule="nonzero">
            <g id="Check-schedule" transform="translate(82.000000, 447.000000)">
                <g id="167-wall-clock" transform="translate(13.000000, 7.000000)">
                    <path d="M15.7327181,2.69927968 C13.9920103,0.958643886 11.6776786,0 9.2159989,0 C6.75431919,0 4.43998747,0.958643886 2.69927968,2.69927968 C0.958643886,4.43998747 0,6.75431919 0,9.2159989 C0,11.6776786 0.958643886,13.9920103 2.69927968,15.7327181 C4.43998747,17.4733539 6.75431919,18.4319978 9.2159989,18.4319978 C11.6776786,18.4319978 13.9920103,17.4733539 15.7327181,15.7327181 C17.4733539,13.9920103 18.4319978,11.6776786 18.4319978,9.2159989 C18.4319978,6.75431919 17.4733539,4.43998747 15.7327181,2.69927968 Z M9.2159989,16.991998 C4.92829141,16.991998 1.43999983,13.5037064 1.43999983,9.2159989 C1.43999983,4.92829141 4.92829141,1.43999983 9.2159989,1.43999983 C13.5037064,1.43999983 16.991998,4.92829141 16.991998,9.2159989 C16.991998,13.5037064 13.5037064,16.991998 9.2159989,16.991998 Z" id="Shape"></path>
                    <polygon id="Path" points="9.93599882 8.49599899 9.93599882 2.73599967 8.49599899 2.73599967 8.49599899 9.93599882 13.9679983 9.93599882 13.9679983 8.49599899"></polygon>
                </g>
            </g>
        </g>
    </g>
</svg>