<?xml version="1.0" encoding="utf-8"?>
<!-- Generator: Adobe Illustrator 25.2.0, SVG Export Plug-In . SVG Version: 6.00 Build 0)  -->
<svg version="1.1" id="Layer_1" xmlns="http://www.w3.org/2000/svg" xmlns:xlink="http://www.w3.org/1999/xlink" x="0px" y="0px"
	viewBox="0 0 30 30" style="enable-background:new 0 0 30 30;" xml:space="preserve">
	<g id="Events">
	<g id="_x30__x2C_0-Events" transform="translate(-286.000000, -40.000000)">
		<g id="Filter" transform="translate(301.000000, 55.000000)">
			<g id="sort" transform="translate(11.500000, 5.000000)">
				<path id="Path" class="st0" d="M-16.7,1.7c0.4,0,0.7-0.3,0.7-0.7v-13.7c0-0.4-0.3-0.7-0.7-0.7c-0.4,0-0.7,0.3-0.7,0.7V0.9
					C-17.4,1.3-17.1,1.7-16.7,1.7z"/>
				<path id="Path_1_" class="st0" d="M-12.3,0.9c-0.3-0.3-0.8-0.3-1,0l-2.8,2.8l0,0c-0.3,0.3-0.8,0.3-1,0l-2.7-2.8
					c-0.3-0.3-0.8-0.3-1,0c-0.3,0.3-0.3,0.8,0,1l2.7,2.8c0.4,0.4,1,0.6,1.6,0.6c0.6,0,1.1-0.2,1.6-0.6l2.8-2.8
					C-12,1.7-12,1.2-12.3,0.9L-12.3,0.9z"/>
				<g id="أ_1_" transform="translate(13.000000, 0.000000)">
					<g id="Group">
						<text transform="matrix(1 0 0 1 -20.3594 -7.1958)" class="st0 st1 st2">أ</text>
					</g>
				</g>
				<g id="ي_1_" transform="translate(11.000000, 12.000000)">
					<g id="Group_1_">
						<text transform="matrix(1 0 0 1 -20.4561 -7.6607)" class="st0 st1 st3">ي</text>
					</g>
				</g>
			</g>
		</g>
	</g>
</g>
</svg>
