<?xml version="1.0" encoding="UTF-8"?>
<svg width="19px" height="18px" viewBox="0 0 19 18" version="1.1" xmlns="http://www.w3.org/2000/svg" xmlns:xlink="http://www.w3.org/1999/xlink">
    <title>sort</title>
    <g id="Symbols" stroke="none" stroke-width="1" fill="none" fill-rule="evenodd">
        <g id="sorting/default" transform="translate(-12.000000, -13.000000)" fill="#419C9B" fill-rule="nonzero">
            <g id="sort" transform="translate(12.500000, 13.000000)">
                <path d="M6.33614062,10.9280039 C6.2201197,10.6827085 5.97309587,10.5262383 5.70174609,10.5262383 L0.719296875,10.5262383 C0.331734375,10.5262383 0.0175429687,10.8404297 0.0175429687,11.2279922 L0.0175429687,11.9298164 C0.0175429687,12.3173789 0.331734375,12.6315703 0.719296875,12.6315703 C1.10685937,12.6315703 1.42105078,12.3173789 1.42105078,11.9298164 L4.21790625,11.9297461 L0.17690625,16.8530273 C0.00472839752,17.0627571 -0.0310977058,17.3529591 0.0849049048,17.5982653 C0.200907515,17.8435716 0.447945124,18 0.719296875,18 L5.59648828,18 C5.98405078,18 6.29824219,17.6858086 6.29824219,17.2982461 L6.29824219,16.5964922 C6.29824219,16.2089297 5.98405078,15.8947383 5.59648828,15.8947383 C5.20892578,15.8947383 4.89473438,16.2089297 4.89473438,16.5964922 L2.20317187,16.5964922 L6.24420703,11.6732461 C6.41637234,11.4635051 6.45217261,11.1732971 6.33614063,10.9280039 L6.33614062,10.9280039 Z" id="Path"></path>
                <path d="M13.6315898,14.4386016 C14.0191523,14.4386016 14.3333438,14.1244102 14.3333438,13.7368477 L14.3333438,0.701753906 C14.3333438,0.314191406 14.0191875,0 13.6315898,0 C13.2440273,0 12.9298359,0.314191406 12.9298359,0.701753906 L12.9298359,13.7368477 C12.9298359,14.1244102 13.2440273,14.4386016 13.6315898,14.4386016 Z" id="Path"></path>
                <path d="M17.7799922,13.7349844 C17.5076016,13.4592188 17.063332,13.4564766 16.7875664,13.728832 L14.1308789,16.3528242 L14.1277852,16.3558828 C13.8541641,16.6295039 13.4089453,16.6294688 13.1356055,16.3560938 L10.5140039,13.7321016 C10.2401016,13.4578828 9.79572656,13.4576719 9.52157813,13.7316445 C9.24739453,14.0055469 9.24718359,14.4498867 9.52112109,14.7240703 L12.1429336,17.3483086 C12.5533828,17.7586875 13.0925039,17.9639297 13.6315898,17.9639297 C14.1699727,17.9639297 14.7082852,17.7593203 15.1184531,17.3500664 L17.7738047,14.7274102 C18.0496055,14.4550195 18.0523125,14.0107148 17.7799922,13.7349844 L17.7799922,13.7349844 Z" id="Path"></path>
                <path d="M3.21053906,0 C1.44991406,0 0.0175429687,1.43233594 0.0175429687,3.19299609 L0.0175429687,6.7719375 C0.0175429687,7.1595 0.331734375,7.47369141 0.719296875,7.47369141 C1.10685937,7.47369141 1.42105078,7.1595 1.42105078,6.7719375 L1.42105078,5.33334375 L4.99999219,5.33334375 L4.99999219,6.7719375 C4.99999219,7.1595 5.31418359,7.47369141 5.70174609,7.47369141 C6.08930859,7.47369141 6.4035,7.1595 6.4035,6.7719375 L6.4035,3.19299609 C6.4035,1.43233594 4.97116406,0 3.21053906,0 Z M5.00002734,3.92983594 L1.42105078,3.92983594 L1.42105078,3.19299609 C1.42105078,2.20626562 2.22380859,1.40350781 3.21053906,1.40350781 C4.19723438,1.40350781 5.00002734,2.20623047 5.00002734,3.19299609 L5.00002734,3.92983594 Z" id="Shape"></path>
            </g>
        </g>
    </g>
</svg>