<svg xmlns="http://www.w3.org/2000/svg" width="12.63" height="15.36" viewBox="0 0 12.63 15.36">
  <g id="logout" transform="translate(-0.015)">
    <path id="Path" d="M9.45,5.13a.45.45,0,0,0,.45-.45V1.35A1.352,1.352,0,0,0,8.55,0H1.35A1.352,1.352,0,0,0,0,1.35V14.01a1.352,1.352,0,0,0,1.35,1.35h7.2A1.352,1.352,0,0,0,9.9,14.01V10.68a.45.45,0,1,0-.9,0v3.33a.451.451,0,0,1-.45.45H1.35a.451.451,0,0,1-.45-.45V1.35A.451.451,0,0,1,1.35.9h7.2A.451.451,0,0,1,9,1.35V4.68A.45.45,0,0,0,9.45,5.13Z" transform="translate(0.015)" fill="#212237"/>
    <path id="Path-2" data-name="Path" d="M9.064,1.381,7.222.082A.45.45,0,0,0,6.7.818l.683.481H.45a.45.45,0,0,0,0,.9H7.386L6.7,2.68a.45.45,0,0,0,.519.736l1.843-1.3A.451.451,0,0,0,9.064,1.381Z" transform="translate(3.39 5.931)" fill="#212237"/>
  </g>
</svg>
