<?xml version="1.0" encoding="UTF-8"?>
<svg width="19px" height="22px" viewBox="0 0 19 22" version="1.1" xmlns="http://www.w3.org/2000/svg" xmlns:xlink="http://www.w3.org/1999/xlink">
    <title>notification</title>
    <g id="Symbols" stroke="none" stroke-width="1" fill="none" fill-rule="evenodd">
        <g id="notifications/default" transform="translate(-13.000000, -11.000000)" fill="#212237" fill-rule="nonzero">
            <g id="notification" transform="translate(13.000000, 11.000000)">
                <path d="M18.0813541,18.3377895 L16.5259683,15.7451544 C15.8076178,14.548498 15.428039,13.1778698 15.428039,11.7828252 L15.428039,9.51176414 C15.428039,6.64464666 13.5148156,4.2196139 10.8986133,3.43782332 L10.8986133,1.81177875 C10.8986133,0.812576422 10.0860369,0 9.08683457,0 C8.08763224,0 7.27505582,0.812576422 7.27505582,1.81177875 L7.27505582,3.43782332 C4.65889605,4.2196139 2.74567263,6.64464666 2.74567263,9.51176414 L2.74567263,11.7828252 C2.74567263,13.1778698 2.36609379,14.5475638 1.64863501,15.7442627 L0.0932492591,18.3368978 C0.00900220535,18.4773237 0.00717628634,18.6512531 0.0878139654,18.7934625 C0.168451644,18.9356718 0.317922224,19.0235707 0.480981038,19.0235707 L17.6927306,19.0235707 C17.8557894,19.0235707 18.0061517,18.9357143 18.0867894,18.7943967 C18.167427,18.6530366 18.1647094,18.4772813 18.0813541,18.3377895 Z" id="Path"></path>
                <path d="M6.23423952,19.9293964 C6.74515713,20.9965399 7.8267806,21.7411752 9.08683457,21.7411752 C10.3468885,21.7411752 11.4285545,20.9965399 11.9394721,19.9293964 L6.23423952,19.9293964 L6.23423952,19.9293964 Z" id="Path"></path>
            </g>
        </g>
    </g>
</svg>