<?xml version="1.0" encoding="UTF-8"?>
<svg width="17px" height="17px" viewBox="0 0 17 17" version="1.1" xmlns="http://www.w3.org/2000/svg" xmlns:xlink="http://www.w3.org/1999/xlink">
    <title>lifebuoy</title>
    <g id="Symbols" stroke="none" stroke-width="1" fill="none" fill-rule="evenodd">
        <g id="icon/menu/help" transform="translate(-4.000000, -4.000000)" fill="#212237" fill-rule="nonzero">
            <g id="lifebuoy" transform="translate(4.500000, 4.500000)">
                <path d="M15.3600037,7.67198909 C15.3624282,5.62121933 14.5657483,3.69407956 13.1166284,2.24555973 C11.6696686,0.799169905 9.74561884,0.00308999963 7.69739908,0.00308999963 L7.68803908,0.00308999963 C5.63684933,0.00551999934 3.70751956,0.806189904 2.25548973,2.25764973 C2.24831973,2.26478973 2.24144973,2.27213973 2.23430973,2.27933973 C2.23253973,2.28104973 2.23064973,2.28248973 2.22890973,2.28422973 C2.22605973,2.28707973 2.22365973,2.29016973 2.22089974,2.29307973 C0.790949906,3.74042955 0.00239999971,5.65415933 -5.58255717e-06,7.68800908 C-0.00242999971,9.73109884 0.788519906,11.6513386 2.22731973,13.0979684 C2.22863973,13.0993184 2.22971973,13.1007584 2.23103973,13.1021084 C2.23184973,13.1029184 2.23274973,13.1035784 2.23355973,13.1043884 C2.23685973,13.1076884 2.24003973,13.1111084 2.24336973,13.1144084 C3.69032956,14.5607683 5.61437933,15.3568782 7.66259909,15.3568782 C7.66559909,15.3568782 7.66895909,15.3568782 7.67195909,15.3568782 C9.70664884,15.3544482 11.6211586,14.5662283 13.0691084,13.1368484 C13.0719884,13.1340884 13.0751084,13.1316884 13.0779284,13.1288684 C13.0796684,13.1271284 13.0811084,13.1252084 13.0828184,13.1234684 C13.0899884,13.1163584 13.0973384,13.1094584 13.1045084,13.1023184 C14.5565683,11.6508586 15.3575682,9.72233884 15.3600037,7.67198909 L15.3600037,7.67198909 Z M12.7511085,12.1667085 L10.9182287,10.3345788 C12.1542586,8.80400895 12.1578586,6.60221921 10.9291487,5.0676594 L12.7880985,3.20942962 C13.8717583,4.44395947 14.4628783,6.01142928 14.4609331,7.67090909 C14.4589483,9.34385889 13.8544783,10.9247087 12.7511085,12.1667085 Z M5.30060937,10.0338288 C4.01003952,8.74376896 4.01003952,6.64472921 5.30060937,5.35466936 C5.94590929,4.70966944 6.79352919,4.38713948 7.64111909,4.38713948 C8.48870899,4.38713948 9.33635889,4.70966944 9.98162881,5.35466936 C11.2721987,6.64469921 11.2721987,8.74373896 9.98162881,10.0338288 C8.69108896,11.3238287 6.59114921,11.3238887 5.30060937,10.0338288 Z M7.68908908,0.901799892 L7.69736908,0.901799892 C9.35444888,0.901799892 10.9194287,1.49249982 12.1523986,2.57393969 L10.2963588,4.42925947 C9.54800886,3.81881954 8.62013897,3.48686958 7.64114909,3.48686958 C6.66809921,3.48686958 5.74559932,3.81491955 4.9996194,4.41830947 L3.19148962,2.61092969 C4.43396947,1.50800982 6.01547928,0.903779892 7.68908908,0.901799892 Z M2.55896969,3.24962961 L4.36400948,5.0539194 C3.12428963,6.58901921 3.12428963,8.79941895 4.36400948,10.3345488 L2.56031969,12.1374886 C1.48397982,10.9049687 0.897119893,9.34271889 0.899065049,7.68908908 C0.901019893,6.04142928 1.48715982,4.48289947 2.55896969,3.24962961 Z M7.67087909,14.4581983 C7.66811909,14.4581983 7.66538909,14.4581983 7.66262909,14.4581983 C5.99963928,14.4581983 4.42949947,13.8632383 3.19454962,12.7744785 L4.9995894,10.9701887 C5.74556932,11.5735786 6.66806921,11.9016286 7.64111909,11.9016286 C8.61416897,11.9016286 9.53666886,11.5735786 10.2826488,10.9701887 L12.1121386,12.7989285 C10.8783887,13.8703183 9.31922889,14.4562183 7.67087909,14.4581983 L7.67087909,14.4581983 Z" id="Shape"></path>
            </g>
        </g>
    </g>
</svg>