<?xml version="1.0" encoding="UTF-8"?>
<svg width="17px" height="17px" viewBox="0 0 17 17" version="1.1" xmlns="http://www.w3.org/2000/svg" xmlns:xlink="http://www.w3.org/1999/xlink">
    <title>settings (1)</title>
    <g id="Symbols" stroke="none" stroke-width="1" fill="none" fill-rule="evenodd">
        <g id="icon/menu/settings" transform="translate(-4.000000, -4.000000)" fill="#212237" fill-rule="nonzero">
            <g id="settings-(1)" transform="translate(4.500000, 4.500000)">
                <path d="M8.16197964,15.3599993 L7.19798968,15.3599993 C6.41831971,15.3599993 5.78396974,14.7256793 5.78396974,13.9460094 L5.78396974,13.6198794 C5.45249976,13.5139794 5.13044977,13.3802994 4.82105978,13.2201894 L4.58993979,13.4513094 C4.03016982,14.0117694 3.13349986,13.9953294 2.58998988,13.4510994 L1.90865991,12.7697994 C1.36418994,12.2259295 1.34852994,11.3295595 1.90883991,10.7698495 L2.1397799,10.5389095 C1.97966991,10.2295195 1.84601992,9.90752956 1.74008992,9.57599957 L1.41398994,9.57599957 C0.634349972,9.57599957 -8.52651245e-16,8.9416796 -8.52651245e-16,8.16200964 L-8.52651245e-16,7.19798968 C-8.52651245e-16,6.41831971 0.634349972,5.78399974 1.41401994,5.78399974 L1.74011992,5.78399974 C1.84604992,5.45249976 1.97969991,5.13047977 2.1398099,4.82108978 L1.90868991,4.58999979 C1.34870994,4.03061982 1.36415994,3.13415986 1.90886991,2.59004988 L2.59025988,1.90868991 C3.13502986,1.36316994 4.03148982,1.34954994 4.59017979,1.90886991 L4.82108978,2.1397799 C5.13047977,1.97969991 5.45252976,1.84601992 5.78399974,1.74008992 L5.78399974,1.41398994 C5.78399974,0.634319972 6.41831971,1.70530249e-15 7.19801968,1.70530249e-15 L8.16200964,1.70530249e-15 C8.9416796,1.70530249e-15 9.57599957,0.634319972 9.57599957,1.41398994 L9.57599957,1.74011992 C9.90746956,1.84601992 10.2295195,1.97969991 10.5389095,2.1398099 L10.7700295,1.90868991 C11.3297995,1.34822994 12.2264695,1.36466994 12.7699794,1.90889991 L13.4513094,2.59019988 C13.9957794,3.13406986 14.0114394,4.03043982 13.4511294,4.59014979 L13.2201894,4.82108978 C13.3802994,5.13047977 13.5139494,5.45246976 13.6198794,5.78399974 L13.9459794,5.78399974 C14.7256493,5.78399974 15.3599993,6.41831971 15.3599993,7.19798968 L15.3599993,8.16200964 C15.3599993,8.9416796 14.7256493,9.57599957 13.9459794,9.57599957 L13.6198794,9.57599957 C13.5139494,9.90749956 13.3802994,10.2295195 13.2201894,10.5389095 L13.4513094,10.7700295 C14.0112894,11.3294095 13.9958394,12.2258695 13.4511294,12.7699794 L12.7697394,13.4513394 C12.2249695,13.9968594 11.3285095,14.0104794 10.7698195,13.4511594 L10.5389095,13.2202494 C10.2295195,13.3803294 9.90746956,13.5140094 9.57599957,13.6199394 L9.57599957,13.9460694 C9.57599957,14.7256793 8.9416796,15.3599993 8.16197964,15.3599993 Z M4.97150978,12.2750995 C5.40131976,12.5292894 5.86391974,12.7213194 6.34643972,12.8458494 C6.54515971,12.8971194 6.6839997,13.0763394 6.6839997,13.2815694 L6.6839997,13.9460094 C6.6839997,14.2294194 6.91460969,14.4599994 7.19801968,14.4599994 L8.16200964,14.4599994 C8.44541962,14.4599994 8.67602961,14.2294194 8.67602961,13.9460094 L8.67602961,13.2815694 C8.67602961,13.0763394 8.81486961,12.8971194 9.0135896,12.8458494 C9.49610958,12.7213194 9.95870955,12.5292894 10.3885195,12.2750995 C10.5653695,12.1705195 10.7905195,12.1989595 10.9358095,12.3442494 L11.4064495,12.8149194 C11.6093695,13.0180794 11.9352295,13.0133694 12.1331695,12.8151294 L12.8149794,12.1333495 C13.0124394,11.9361295 13.0190394,11.6102095 12.8151594,11.4065995 L12.3443094,10.9357495 C12.1990495,10.7904895 12.1706095,10.5653095 12.2751595,10.3884895 C12.5293494,9.95870955 12.7213494,9.49610958 12.8458794,9.0135596 C12.8971794,8.81483961 13.0763994,8.67602961 13.2815994,8.67602961 L13.9460094,8.67602961 C14.2294194,8.67602961 14.4600294,8.44544962 14.4600294,8.16203964 L14.4600294,7.19801968 C14.4600294,6.91460969 14.2294194,6.6840297 13.9460094,6.6840297 L13.2815994,6.6840297 C13.0763694,6.6840297 12.8971794,6.54518971 12.8458794,6.34649972 C12.7213494,5.86394974 12.5293194,5.40134976 12.2751595,4.97156978 C12.1706095,4.79474979 12.1990495,4.5695698 12.3443094,4.4243098 L12.8149794,3.95363982 C13.0184394,3.75041983 13.0131294,3.42461985 12.8151594,3.22688986 L12.1334095,2.54513989 C11.9357995,2.3472599 11.6098795,2.3414699 11.4066595,2.54495989 L10.9358395,3.01580987 C10.7905795,3.16109986 10.5653395,3.18953986 10.3885495,3.08495986 C9.95873955,2.83076987 9.49613958,2.63873988 9.0136196,2.51420989 C8.81489961,2.46293989 8.67605961,2.2837199 8.67605961,2.07848991 L8.67605961,1.41398994 C8.67605961,1.13057995 8.44544962,0.89999996 8.16203964,0.89999996 L7.19804968,0.89999996 C6.91463969,0.89999996 6.6840297,1.13057995 6.6840297,1.41398994 L6.6840297,2.07842991 C6.6840297,2.2836599 6.54518971,2.46287989 6.34646972,2.51414989 C5.86394974,2.63867988 5.40134976,2.83070987 4.97153978,3.08489986 C4.79465979,3.18944986 4.5695098,3.16100986 4.4242498,3.01574987 L3.95360982,2.54507989 C3.75068983,2.3419199 3.42479985,2.3466299 3.22688986,2.54486989 L2.54507989,3.22664986 C2.3476199,3.42386985 2.3410199,3.74975983 2.54489989,3.95339982 L3.01574987,4.4242498 C3.16100986,4.5695098 3.18944986,4.79468979 3.08489986,4.97150978 C2.83070987,5.40128976 2.63870988,5.86388974 2.51417989,6.34643972 C2.46287989,6.54515971 2.2836599,6.6839697 2.07845991,6.6839697 L1.41401994,6.6839697 C1.13060995,6.6839997 0.89999996,6.91457969 0.89999996,7.19798968 L0.89999996,8.16200964 C0.89999996,8.44541962 1.13060995,8.67599961 1.41401994,8.67599961 L2.07842991,8.67599961 C2.2836599,8.67599961 2.46284989,8.81483961 2.51414989,9.0135296 C2.63867988,9.49607958 2.83070987,9.95867955 3.08486986,10.3884595 C3.18941986,10.5652795 3.16097986,10.7904595 3.01571987,10.9357195 L2.54504989,11.4063895 C2.3415899,11.6096095 2.3468999,11.9354095 2.54486989,12.1331395 L3.22661986,12.8148894 C3.42422985,13.0127694 3.75014983,13.0185594 3.95336982,12.8150694 L4.4241898,12.3442194 C4.5312298,12.2372095 4.75391979,12.1463995 4.97150978,12.2750995 L4.97150978,12.2750995 Z" id="Shape"></path>
                <path d="M7.67999966,11.0219995 C5.83718974,11.0219995 4.33799981,9.52277957 4.33799981,7.67999966 C4.33799981,5.83721974 5.83718974,4.33799981 7.67999966,4.33799981 C9.52280957,4.33799981 11.0219995,5.83721974 11.0219995,7.67999966 C11.0219995,9.52277957 9.52280957,11.0219995 7.67999966,11.0219995 Z M7.67999966,5.23799977 C6.33344972,5.23799977 5.23799977,6.33347972 5.23799977,7.67999966 C5.23799977,9.0265196 6.33347972,10.1219995 7.67999966,10.1219995 C9.0265196,10.1219995 10.1219995,9.0265196 10.1219995,7.67999966 C10.1219995,6.33347972 9.0265496,5.23799977 7.67999966,5.23799977 L7.67999966,5.23799977 Z" id="Shape"></path>
            </g>
        </g>
    </g>
</svg>