<?xml version="1.0" encoding="UTF-8"?>
<svg width="24px" height="24px" viewBox="0 0 24 24" version="1.1" xmlns="http://www.w3.org/2000/svg" xmlns:xlink="http://www.w3.org/1999/xlink">
    <title>Group 28</title>
    <g id="Homepage" stroke="none" stroke-width="1" fill="none" fill-rule="evenodd">
        <g id="5,0-Asset-Page" transform="translate(-53.000000, -502.000000)">
            <g id="Actions" transform="translate(16.000000, 483.000000)">
                <g id="Review" transform="translate(16.000000, 13.000000)">
                    <g id="Group-28" transform="translate(21.000000, 6.000000)">
                        <rect id="Rectangle" x="0" y="0" width="24" height="24"></rect>
                        <g id="edit" transform="translate(2.000000, 2.000000)" fill="#212237" fill-rule="nonzero">
                            <path d="M16.3839861,9.97302261 C15.990553,9.97302261 15.6716243,10.2919513 15.6716243,10.6853843 L15.6716243,17.8088348 C15.6716243,18.2022678 15.3526957,18.5211965 14.9592626,18.5211965 L2.13704348,18.5211965 C1.74361043,18.5211965 1.42468174,18.2022678 1.42468174,17.8088348 L1.42468174,3.56189217 C1.42468174,3.16845913 1.74361043,2.84953043 2.13704348,2.84953043 L10.6852174,2.84953043 C11.0786504,2.84953043 11.3975791,2.53060174 11.3975791,2.1371687 C11.3975791,1.74373565 11.0786504,1.4248487 10.6852174,1.4248487 L2.13704348,1.4248487 C0.956786087,1.4248487 0,2.38163478 0,3.56189217 L0,17.8088348 C0,18.9890922 0.956786087,19.9458783 2.13704348,19.9458783 L14.9593043,19.9458783 C16.1395617,19.9458783 17.0963478,18.9890922 17.0963478,17.8088348 L17.0963478,10.6853426 C17.0963478,10.2919513 16.7774191,9.97302261 16.3839861,9.97302261 Z" id="Path"></path>
                            <path d="M19.1474922,0.798970435 C18.6360209,0.287415652 17.9422748,0.000155686482 17.2188939,0.000155686482 C16.4950957,-0.00192 15.80064,0.285913043 15.2905878,0.799429565 L5.90750609,10.1817183 C5.82966261,10.2601461 5.77093565,10.3554783 5.73583304,10.4602435 L4.3111513,14.7343304 C4.18681043,15.1076035 4.38861913,15.5109704 4.76189217,15.6352696 C4.83430957,15.6593948 4.91014957,15.6717913 4.9864487,15.6717913 C5.06291478,15.6717913 5.13892174,15.6593948 5.21154783,15.6354783 L9.48563478,14.2107965 C9.5906087,14.1757357 9.68598261,14.1167165 9.76416,14.0384139 L19.1472,4.65537391 C20.2121739,3.59052522 20.2122991,1.86394435 19.1474922,0.798970435 Z M18.1399513,3.64879304 L8.87941565,12.9093287 L6.11265391,13.8332243 L7.0337113,11.0700104 L16.2977948,1.80951652 C16.8070957,1.30121739 17.6320696,1.30205217 18.1403687,1.81135304 C18.3831652,2.05465043 18.5199861,2.38401391 18.5210337,2.72773565 C18.5219061,3.07329391 18.3847096,3.40486957 18.1399513,3.64879304 Z" id="Shape"></path>
                        </g>
                    </g>
                </g>
            </g>
        </g>
    </g>
</svg>