<svg id="Group_34" data-name="Group 34" xmlns="http://www.w3.org/2000/svg" width="24" height="24" viewBox="0 0 24 24">
  <rect id="Rectangle_Copy_15" data-name="Rectangle Copy 15" width="24" height="24" fill="none"/>
  <g id="icon_16x16_share" data-name="icon/16x16/share" transform="translate(2 2)">
    <g id="share_2_" data-name="share (2)" transform="translate(0)">
      <path id="Shape" d="M9.307,18.606V13.752A8.86,8.86,0,0,0,1.675,19.61a.586.586,0,0,1-1.1,0A10,10,0,0,1,9.307,6.3V1.394C9.307.366,9.876,0,10.364,0a1.515,1.515,0,0,1,1.051.522l7.957,7.957a2.155,2.155,0,0,1,0,3.042l-7.958,7.957A1.515,1.515,0,0,1,10.364,20C9.876,20,9.307,19.635,9.307,18.606Z" fill="#212237"/>
    </g>
  </g>
</svg>
