<svg xmlns="http://www.w3.org/2000/svg" width="22.159" height="36.648" viewBox="0 0 22.159 36.648">
  <g id="walk" transform="translate(-0.016)">
    <path id="Path" d="M3.409,6.818A3.409,3.409,0,1,0,0,3.409,3.419,3.419,0,0,0,3.409,6.818Z" transform="translate(9.391)" fill="rgba(33,34,55,0.5)"/>
    <path id="Path-2" data-name="Path" d="M22.159,11.932V8.523a8.739,8.739,0,0,1-7.415-4.176L13.125,1.619A3.325,3.325,0,0,0,10.227,0,3.42,3.42,0,0,0,8.949.256L0,3.921v8.012H3.409V6.222L6.392,4.943,1.7,28.978h3.58L8.267,15.341l3.665,3.409V28.978h3.409V16.108l-3.494-3.494L12.87,7.5A11.894,11.894,0,0,0,22.159,11.932Z" transform="translate(0.016 7.671)" fill="rgba(33,34,55,0.5)"/>
  </g>
</svg>
