<svg id="Discover" xmlns="http://www.w3.org/2000/svg" width="30" height="33.336" viewBox="0 0 30 33.336">
  <g id="Components_Map_Pin_Small" data-name="Components/Map Pin/Small">
    <path id="Combined_Shape" data-name="Combined Shape" d="M14.293,33.043,11.25,30H10A10,10,0,0,1,0,20V10A10,10,0,0,1,10,0H20A10,10,0,0,1,30,10V20A10,10,0,0,1,20,30H18.75l-3.043,3.043a1,1,0,0,1-1.414,0Z" fill="#212237"/>
    <g id="telescope" transform="translate(7 7)">
      <path id="Shape" d="M10.775,15.1,8.031,9.387V14.91a.45.45,0,1,1-.9,0V9.387L4.387,15.1a.451.451,0,0,1-.406.256.442.442,0,0,1-.194-.045.45.45,0,0,1-.212-.6l3.05-6.353A1.347,1.347,0,0,1,6.28,7.77l-.88.236a1.059,1.059,0,0,1-.274.037A1.039,1.039,0,0,1,4.6,7.9a1.064,1.064,0,0,1-.275-.229l-.822.22a1.049,1.049,0,0,1-1.072-.334l-1.4.375a.424.424,0,0,1-.116.015.442.442,0,0,1-.225-.06.447.447,0,0,1-.21-.273L.015,5.877a.451.451,0,0,1,.319-.552l1.4-.375a1.031,1.031,0,0,1,.124-.336,1.042,1.042,0,0,1,.637-.49l.823-.22a1.05,1.05,0,0,1,.76-.824L10.6,1.333l-.039-.145a.45.45,0,0,1,.318-.552L13.2.015a.452.452,0,0,1,.341.045.446.446,0,0,1,.21.274l1.4,5.216a.451.451,0,0,1-.318.552l-2.318.621a.469.469,0,0,1-.117.015.45.45,0,0,1-.435-.334l-.039-.145-3.032.813a1.349,1.349,0,0,1-.35,1.291l3.049,6.353a.45.45,0,0,1-.212.6.439.439,0,0,1-.194.045A.451.451,0,0,1,10.775,15.1Z" transform="translate(0.009 0)" fill="#fff"/>
    </g>
  </g>
</svg>
