<svg id="Eat" xmlns="http://www.w3.org/2000/svg" width="30" height="33.336" viewBox="0 0 30 33.336">
  <g id="Components_Map_Pin_Small" data-name="Components/Map Pin/Small">
    <path id="Combined_Shape" data-name="Combined Shape" d="M14.293,33.043,11.25,30H10A10,10,0,0,1,0,20V10A10,10,0,0,1,10,0H20A10,10,0,0,1,30,10V20A10,10,0,0,1,20,30H18.75l-3.043,3.043a1,1,0,0,1-1.414,0Z" fill="#da7112"/>
    <g id="cutlery" transform="translate(9 7)">
      <path id="Shape" d="M1.928,13.946V7.605A2.381,2.381,0,0,1,0,5.27V2.01A2.182,2.182,0,0,1,1.212.048a.448.448,0,0,1,.4,0,2.211,2.211,0,0,1,.762.627A2.206,2.206,0,0,1,3.141.048a.446.446,0,0,1,.4,0,2.195,2.195,0,0,1,.762.627A2.206,2.206,0,0,1,5.069.048a.446.446,0,0,1,.4,0A2.183,2.183,0,0,1,6.684,2.01V5.27A2.381,2.381,0,0,1,4.756,7.605v6.341a1.414,1.414,0,0,1-2.828,0Z" transform="translate(0.007 0)" fill="#fff"/>
      <path id="Shape-2" data-name="Shape" d="M0,13.946V.45A.45.45,0,0,1,.45,0,3.821,3.821,0,0,1,4.274,3.823v6.749a.45.45,0,0,1-.45.45h-1v2.924a1.414,1.414,0,0,1-2.828,0Z" transform="translate(7.719)" fill="#fff"/>
    </g>
  </g>
</svg>
