<?xml version="1.0" encoding="UTF-8"?>
<svg width="32px" height="32px" viewBox="0 0 32 32" version="1.1" xmlns="http://www.w3.org/2000/svg" xmlns:xlink="http://www.w3.org/1999/xlink">
    <!-- Generator: Sketch 60 (88103) - https://sketch.com -->
    <title>Directions</title>
    <desc>Created with Sketch.</desc>
    <g id="Page-1" stroke="none" stroke-width="1" fill="none" fill-rule="evenodd">
        <g id="MV-Design-System" transform="translate(-2582.000000, -4128.000000)" fill="#419C9B" fill-rule="nonzero">
            <g id="Group-27" transform="translate(2303.000000, 3936.000000)">
                <g id="Group-26" transform="translate(16.000000, 169.000000)">
                    <g id="Directions" transform="translate(263.000000, 23.000000)">
                        <g id="direction">
                            <path d="M31.4999157,14.8563934 L31.4999157,14.8563934 L17.1111569,0.46763466 C16.487644,-0.15587822 15.4724122,-0.15587822 14.856918,0.46763466 L0.468159251,14.8563934 C-0.15535363,15.4799063 -0.15535363,16.4951382 0.468159251,17.1186511 L14.856918,31.4993911 L14.856918,31.5074098 C15.4804309,32.1309227 16.4956628,32.1309227 17.1191756,31.5074098 L31.5079344,17.1186511 C32.1313724,16.4871194 32.1313724,15.4799063 31.4999157,14.8563934 Z M19.1814895,19.9803653 L19.1814895,15.9835129 L12.7865105,15.9835129 L12.7865105,20.7797658 L9.58898361,20.7797658 L9.58898361,14.3847869 C9.58898361,13.4974801 10.3004028,12.7860609 11.1877096,12.7860609 L19.1814895,12.7860609 L19.1814895,8.78913349 L24.7771429,14.3847869 L19.1814895,19.9803653 Z" id="Shape"></path>
                        </g>
                    </g>
                </g>
            </g>
        </g>
    </g>
</svg>