<?xml version="1.0" encoding="UTF-8"?>
<svg width="21px" height="20px" viewBox="0 0 21 20" version="1.1" xmlns="http://www.w3.org/2000/svg" xmlns:xlink="http://www.w3.org/1999/xlink">
    <!-- Generator: Sketch 60 (88103) - https://sketch.com -->
    <title>068-map-1</title>
    <desc>Created with Sketch.</desc>
    <g id="Map" stroke="none" stroke-width="1" fill="none" fill-rule="evenodd">
        <g id="0,4-Map" transform="translate(-329.000000, -686.000000)" fill="#FFFFFF" fill-rule="nonzero">
            <g id="Map" transform="translate(319.000000, 676.000000)">
                <g id="068-map-1" transform="translate(10.000000, 10.000000)">
                    <path d="M7.62704011,0.184200003 C7.43422525,0.0403968606 7.18463206,-0.00343073675 6.9543601,0.066080001 L0.541640008,1.99244003 C0.220192389,2.08906827 8.89669481e-05,2.3849831 0,2.72064004 L0,17.8272003 C0,18.0675409 0.113685985,18.2937202 0.306440005,18.4372803 C0.437656939,18.5349023 0.596852023,18.5876003 0.760400011,18.5876003 C0.833640012,18.5876003 0.907400014,18.5769603 0.979160015,18.5556803 L7.39184011,16.6290802 C7.71330361,16.5324746 7.93348012,16.2365459 7.93348012,15.9008802 L7.93348012,0.794320012 C7.93348012,0.553947282 7.81986537,0.327718187 7.62704011,0.184200003 Z M6.4126801,15.3348402 L1.52080002,16.8044403 L1.52080002,3.28612005 L6.4126801,1.81652003 L6.4126801,15.3348402 L6.4126801,15.3348402 Z" id="Shape"></path>
                    <path d="M13.8944802,2.67400004 L7.45644011,0.0886800013 C7.22219874,-0.00570719267 6.95635229,0.0226017805 6.7472401,0.164200002 C6.53807982,0.305610218 6.4126801,0.541602551 6.4126801,0.794080012 L6.4126801,15.9006002 C6.4126801,16.2111663 6.60151475,16.4905295 6.8897201,16.6062402 L13.3277602,19.1916003 C13.5621333,19.2856192 13.8278716,19.2573313 14.0372002,19.1160803 C14.2463395,18.9746788 14.3716131,18.7386555 14.3715203,18.4862003 L14.3715203,3.37964005 C14.3714355,3.06910779 14.182613,2.78980058 13.8944802,2.67400004 L13.8944802,2.67400004 Z M12.8506802,17.3613203 L7.93344012,15.3865602 L7.93344012,1.91892003 L12.8506802,3.89368006 L12.8506802,17.3613203 Z" id="Shape"></path>
                    <path d="M20.1984003,1.49592002 C20.0202382,1.35162722 19.7864998,1.29538598 19.5622003,1.34284002 L13.4536802,2.63548004 C13.1021202,2.70976004 12.8506802,3.02024005 12.8506802,3.37940005 L12.8506802,18.4859203 C12.8506802,18.715242 12.9541646,18.932319 13.1322802,19.0767603 C13.3103927,19.2211535 13.5441792,19.2774063 13.7684802,19.2298403 L19.8770003,17.9371603 C20.2285614,17.8628714 20.480087,17.5525647 20.4800003,17.1932403 L20.4800003,2.08672003 C20.4800003,1.85739674 20.3765605,1.64030876 20.1984003,1.49592002 L20.1984003,1.49592002 Z M18.9592003,16.5770802 L14.3714802,17.5478403 L14.3714802,3.99584006 L18.9592003,3.02504005 L18.9592003,16.5770802 Z" id="Shape"></path>
                </g>
            </g>
        </g>
    </g>
</svg>